{"title":"Wicked Blood 2014 BRRip x264 AC3 - BiTo","uid":9652373,"size":1152010924,"categoryP":"video","categoryS":"movies","magnet":"?xt=urn:btih:b950ab630eb5f00f4bcf74d35ab314ee1c6d9922&amp;dn=Wicked+Blood+2014+BRRip+x264+AC3+-+BiTo&amp;tr=udp%3A%2F%2Ftracker.openbittorrent.com%3A80&amp;tr=udp%3A%2F%2Fopen.demonii.com%3A1337&amp;tr=udp%3A%2F%2Ftracker.coppersurfer.tk%3A6969&amp;tr=udp%3A%2F%2Fexodus.desync.com%3A6969","seeders":2,"leechers":0,"uploader":"xxxlavalxxx","files":-1,"time":1393098866,"description":" &lt;a href=&quot;\nhttp://www.imdb.com/title/tt2761578/&quot; rel=&quot;nofollow&quot; target=&quot;_NEW&quot;&gt;\nhttp://www.imdb.com/title/tt2761578/&lt;/a&gt;\n\n\nHannah Lee Baker is a bright teen girl trapped in the dark Southern underworld of violence and guns, meth labs and vicious biker gangs, and whose only refuge is chess. She lives with Amber, her older sister; and her uncle Donny, an addict. All live in fear of Uncle Frank Stinson, who runs the illegal family business with an iron fist, aided by his psychotic younger brother Bobby. Things change for the worse when Amber falls in love with Wild Bill, a meth trafficker who finds himself at war with Frank. Hannah realizes the only way to save her family is by cleverly scheming to pit one pawn against another in a cunning chess game.\n\nDirector: Mark Young\nWriter: Mark Young\nStars: Abigail Breslin, Alexa PenaVega, James Purefoy\nGenres: Action | Drama | Thriller\nCountry: USA\nLanguage: English\n\n\n\nSource: Rovers Thx\nAudio: 384kb @ 6ch\nContainer: Mkv\nCodec: x264\n\nVideo\nID                                       : 1\nFormat                                   : AVC\nFormat/Info                              : Advanced Video Codec\nFormat profile                           : &lt;a class=&quot;__cf_email__&quot; href=&quot;/cdn-cgi/l/email-protection&quot; data-cfemail=&quot;6528040c0b2529564b55&quot;&gt;[email&amp;#160;protected]&lt;/a&gt;&lt;script cf-hash='f9e31' type=&quot;text/javascript&quot;&gt;\n/* &lt;![CDATA[ */!function(){try{var t=&quot;currentScript&quot;in document?document.currentScript:function(){for(var t=document.getElementsByTagName(&quot;script&quot;),e=t.length;e--;)if(t[e].getAttribute(&quot;cf-hash&quot;))return t[e]}();if(t&amp;&amp;t.previousSibling){var e,r,n,i,c=t.previousSibling,a=c.getAttribute(&quot;data-cfemail&quot;);if(a){for(e=&quot;&quot;,r=parseInt(a.substr(0,2),16),n=2;a.length-n;n+=2)i=parseInt(a.substr(n,2),16)^r,e+=String.fromCharCode(i);e=document.createTextNode(e),c.parentNode.replaceChild(e,c)}}}catch(u){}}();/* ]]&gt; */&lt;/script&gt;\nFormat settings, CABAC                   : Yes\nFormat settings, ReFrames                : 4 frames\nCodec ID                                 : V_MPEG4/ISO/AVC\nDuration                                 : 1h 31mn\nBit rate                                 : 1 300 Kbps\nWidth                                    : 720 pixels\nHeight                                   : 304 pixels\nDisplay aspect ratio                     : 2.35:1\nOriginal display aspect ratio            : 2.35:1\nFrame rate mode                          : Constant\nFrame rate                               : 23.976 fps\nColor space                              : YUV\nChroma subsampling                       : 4:2:0\nBit depth                                : 8 bits\nScan type                                : Progressive\nBits/(Pixel*Frame)                       : 0.248\nStream size                              : 825 MiB (75%)\nWriting library                          : x264 core 125\nLanguage                                 : English\nDefault                                  : Yes\nForced                                   : No\nColor primaries                          : BT.709\nTransfer characteristics                 : BT.709\nMatrix coefficients                      : BT.709\n\nAudio\nID                                       : 2\nFormat                                   : AC-3\nFormat/Info                              : Audio Coding 3\nMode extension                           : CM (complete main)\nFormat settings, Endianness              : Big\nCodec ID                                 : A_AC3\nDuration                                 : 1h 31mn\nBit rate mode                            : Constant\nBit rate                                 : 384 Kbps\nChannel count                            : 6 channels\nChannel positions                        : Front: L C R, Side: L R, LFE\nSampling rate                            : 48.0 KHz\nBit depth                                : 16 bits\nCompression mode                         : Lossy\nStream size                              : 252 MiB (23%)\nLanguage                                 : English\nDefault                                  : Yes\nForced                                   : No\n\n\n\nscreens\n &lt;a href=&quot;\nhttp://i.imgur.com/IXSXiZC.jpg&quot; rel=&quot;nofollow&quot; target=&quot;_NEW&quot;&gt;\nhttp://i.imgur.com/IXSXiZC.jpg&lt;/a&gt; &lt;a href=&quot;\nhttp://i.imgur.com/2KWVlmV.jpg&quot; rel=&quot;nofollow&quot; target=&quot;_NEW&quot;&gt;\nhttp://i.imgur.com/2KWVlmV.jpg&lt;/a&gt; &lt;a href=&quot;\nhttp://i.imgur.com/MEVuW1i.jpg&quot; rel=&quot;nofollow&quot; target=&quot;_NEW&quot;&gt;\nhttp://i.imgur.com/MEVuW1i.jpg&lt;/a&gt; &lt;a href=&quot;\nhttp://i.imgur.com/T3kGJiV.jpg&quot; rel=&quot;nofollow&quot; target=&quot;_NEW&quot;&gt;\nhttp://i.imgur.com/T3kGJiV.jpg&lt;/a&gt; &lt;a href=&quot;\nhttp://i.imgur.com/ojvRr8X.jpg&quot; rel=&quot;nofollow&quot; target=&quot;_NEW&quot;&gt;\nhttp://i.imgur.com/ojvRr8X.jpg&lt;/a&gt; &lt;a href=&quot;\nhttp://i.imgur.com/2MzzRas.jpg&quot; rel=&quot;nofollow&quot; target=&quot;_NEW&quot;&gt;\nhttp://i.imgur.com/2MzzRas.jpg&lt;/a&gt;","torrent":{"xt":"urn:btih:b950ab630eb5f00f4bcf74d35ab314ee1c6d9922","amp;dn":"Wicked+Blood+2014+BRRip+x264+AC3+-+BiTo","amp;tr":["udp%3A%2F%2Ftracker.openbittorrent.com%3A80","udp%3A%2F%2Fopen.demonii.com%3A1337","udp%3A%2F%2Ftracker.coppersurfer.tk%3A6969","udp%3A%2F%2Fexodus.desync.com%3A6969"],"infoHash":"b950ab630eb5f00f4bcf74d35ab314ee1c6d9922","infoHashBuffer":{"type":"Buffer","data":[185,80,171,99,14,181,240,15,75,207,116,211,90,179,20,238,28,109,153,34]},"announce":[],"urlList":[]}}